<svg height="512" viewBox="0 0 8.47 8.47" width="512" xmlns="http://www.w3.org/2000/svg"><g><path d="m5.28.53a.265.265 0 0 0 -.178.0762l-1.06 1.06a.265.265 0 0 0 0 .375.265.265 0 0 0 .375 0l1.06-1.06a.265.265 0 0 0 0-.375.265.265 0 0 0 -.195-.0762z" font-feature-settings="normal" font-variant-alternates="normal" font-variant-caps="normal" font-variant-east-asian="normal" font-variant-ligatures="normal" font-variant-numeric="normal" font-variant-position="normal" font-variation-settings="normal" inline-size="0" isolation="auto" mix-blend-mode="normal" shape-margin="0" shape-padding="0" text-decoration-color="rgb(0,0,0)" text-decoration-line="none" text-decoration-style="solid" text-indent="0" text-orientation="mixed" text-transform="none" white-space="normal"/><path d="m3.31.652a.265.265 0 0 0 -.195.0776c-.298.298-.465.702-.465 1.12 0 .874.714 1.59 1.59 1.59.421-.0000601.825-.167 1.12-.465a.265.265 0 0 0 0-.374l-1.87-1.87a.265.265 0 0 0 -.179-.0776zm.0295.676 1.42 1.42c-.161.0936-.335.16-.524.16-.588 0-1.06-.471-1.06-1.06.00003-.189.0666-.364.16-.524z" font-feature-settings="normal" font-variant-alternates="normal" font-variant-caps="normal" font-variant-east-asian="normal" font-variant-ligatures="normal" font-variant-numeric="normal" font-variant-position="normal" font-variation-settings="normal" inline-size="0" isolation="auto" mix-blend-mode="normal" shape-margin="0" shape-padding="0" text-decoration-color="rgb(0,0,0)" text-decoration-line="none" text-decoration-style="solid" text-indent="0" text-orientation="mixed" text-transform="none" white-space="normal"/><path d="m3.18 2.38a.265.265 0 0 0 -.252.181l-.508 1.53a.265.265 0 0 0 .38.315c.191-.107.409-.168.644-.168.232 0 .451.0608.644.169a.265.265 0 0 0 .38-.315l-.35-1.05a.265.265 0 0 0 -.177-.17c-.22-.0642-.413-.198-.551-.381a.265.265 0 0 0 -.211-.106zm.119.742c.107.079.227.134.351.184l.164.494c-.126-.0274-.237-.0967-.371-.0967s-.244.0692-.371.0967z" font-feature-settings="normal" font-variant-alternates="normal" font-variant-caps="normal" font-variant-east-asian="normal" font-variant-ligatures="normal" font-variant-numeric="normal" font-variant-position="normal" font-variation-settings="normal" inline-size="0" isolation="auto" mix-blend-mode="normal" shape-margin="0" shape-padding="0" text-decoration-color="rgb(0,0,0)" text-decoration-line="none" text-decoration-style="solid" text-indent="0" text-orientation="mixed" text-transform="none" white-space="normal"/><path d="m3.44 3.71c-.948 0-1.71.695-1.82 1.62-.626.104-1.09.642-1.09 1.3 0 .728.597 1.32 1.32 1.32h5.03c.582 0 1.06-.477 1.06-1.06 0-.478-.332-.92-.794-.95 0-.0479-.0000529-.0726 0-.11 0-.728-.595-1.32-1.32-1.32-.291.000045-.516.0791-.744.251-.289-.669-.892-1.05-1.64-1.05z" font-feature-settings="normal" font-variant-alternates="normal" font-variant-caps="normal" font-variant-east-asian="normal" font-variant-ligatures="normal" font-variant-numeric="normal" font-variant-position="normal" font-variation-settings="normal" inline-size="0" isolation="auto" mix-blend-mode="normal" shape-margin="0" shape-padding="0" text-decoration-color="rgb(0,0,0)" text-decoration-line="none" text-decoration-style="solid" text-indent="0" text-orientation="mixed" text-transform="none" white-space="normal"/></g></svg>