<svg id="Layer_1" enable-background="new 0 0 26 26" height="512" viewBox="0 0 26 26" width="512" xmlns="http://www.w3.org/2000/svg"><g id="_x32_8"><path d="m8.7550049 7.3462677c-.3898926-.3900146-1.0200195-.3900146-1.4099121 0-3.1201172 3.1099854-3.1201172 8.1900024 0 11.3099976.3740816.3742027 1.0122738.3977661 1.4099121 0 .3901367-.3900146.3901367-1.0200195 0-1.4100342-2.3400879-2.3399658-2.3400879-6.1499634 0-8.4899902.3901367-.3900147.3901367-1.0199586 0-1.4099732z"/><path d="m21.4849854 21.4862823c4.6799316-4.6800537 4.6799316-12.2900391 0-16.9700317-.3898926-.3900146-1.0200195-.3900146-1.4099121 0-.3901367.3900146-.3901367 1.0200195 0 1.4100342 3.8999023 3.8999634 3.8999023 10.25 0 14.1399536-.3901367.3900146-.3901367 1.0300293 0 1.4200439.3979301.398058 1.0360946.3739377 1.4099121 0z"/><path d="m17.2449951 18.6562653c.3747673.3748875 1.0128021.3969727 1.4101563 0 3.119873-3.1199951 3.119873-8.1900024 0-11.3099976-.3901367-.3900146-1.0200195-.3900146-1.4101563 0-.3898926.3900146-.3898926 1.0199585 0 1.4099731 2.3400879 2.3400269 2.3400879 6.1500244 0 8.4899902-.3898926.3900147-.3898926 1.0200196 0 1.4100343z"/><path d="m4.5150146 21.4862823c.4225349.4015121 1.0385599.3714714 1.4099121 0 .3901367-.3900146.3901367-1.0300293 0-1.4200439-3.8999023-3.8899536-3.8999023-10.2399902 0-14.1399536.3901367-.3900146.3901367-1.0200195 0-1.4100342-.3898926-.3900146-1.0197754-.3900146-1.4099121 0-4.6799316 4.6799927-4.6799316 12.289978 0 16.9700317z"/><path d="m13.0050049 9.7029572c-1.8195801 0-3.2932129 1.4820557-3.2932129 3.2932739 0 1.8195801 1.4736328 3.293335 3.2932129 3.293335 1.8112793 0 3.2932129-1.4737549 3.2932129-3.293335 0-1.8112183-1.4819336-3.2932739-3.2932129-3.2932739z"/></g></svg>